<?xml version="1.0" encoding="UTF-8" standalone="no"?>
<!DOCTYPE svg PUBLIC "-//W3C//DTD SVG 1.1//EN"
 "http://www.w3.org/Graphics/SVG/1.1/DTD/svg11.dtd">
<!-- Generated by graphviz version 2.38.0 (20140413.2041)
 -->
<!-- Title: rgbSystem Pages: 1 -->
<svg width="521pt" height="505pt"
 viewBox="0.00 0.00 520.95 505.22" xmlns="http://www.w3.org/2000/svg" xmlns:xlink="http://www.w3.org/1999/xlink">
<g id="graph0" class="graph" transform="scale(1 1) rotate(0) translate(4 501.22)">
<title>rgbSystem</title>
<polygon fill="white" stroke="none" points="-4,4 -4,-501.22 516.948,-501.22 516.948,4 -4,4"/>
<!-- init -->
<!-- S0 -->
<g id="node2" class="node"><title>S0</title>
<ellipse fill="none" stroke="black" cx="232.948" cy="-362.22" rx="27" ry="18"/>
<text text-anchor="start" x="226.448" y="-359.52" font-family="Times,serif" font-size="14.00">S</text>
<text text-anchor="start" x="234.448" y="-359.52" font-family="Times,serif" baseline-shift="sub" font-size="10.00">0</text>
</g>
<!-- init&#45;&gt;S0 -->
<g id="edge1" class="edge"><title>init&#45;&gt;S0</title>
<path fill="none" stroke="black" d="M232.948,-460.754C232.948,-442.156 232.948,-412.465 232.948,-390.722"/>
<polygon fill="black" stroke="black" points="236.448,-390.474 232.948,-380.474 229.448,-390.474 236.448,-390.474"/>
<text text-anchor="middle" x="250.948" y="-432.02" font-family="Times,serif" font-size="14.00"> R = 0</text>
<text text-anchor="middle" x="250.948" y="-417.02" font-family="Times,serif" font-size="14.00">G = 0</text>
<text text-anchor="middle" x="250.948" y="-402.02" font-family="Times,serif" font-size="14.00">B = 0</text>
</g>
<!-- R -->
<g id="node3" class="node"><title>R</title>
<ellipse fill="none" stroke="red" cx="88.9479" cy="-251.35" rx="31.2258" ry="26.7407"/>
<text text-anchor="middle" x="88.9479" y="-255.15" font-family="Times,serif" font-size="14.00">leggi</text>
<text text-anchor="middle" x="88.9479" y="-240.15" font-family="Times,serif" font-size="14.00">R</text>
</g>
<!-- S0&#45;&gt;R -->
<g id="edge2" class="edge"><title>S0&#45;&gt;R</title>
<path fill="none" stroke="black" d="M205.577,-361.242C150.936,-360.641 31.3878,-355.883 5.94792,-326.22 -2.73215,-316.099 -0.933322,-307.641 5.94792,-296.22 15.5812,-280.232 33.2062,-269.769 49.7446,-263.088"/>
<polygon fill="black" stroke="black" points="51.1109,-266.315 59.288,-259.578 48.6944,-259.745 51.1109,-266.315"/>
<text text-anchor="middle" x="82.4479" y="-307.52" font-family="Times,serif" font-size="14.00"> T == 1 x 2sec / blink(R, 3)</text>
</g>
<!-- R&#45;&gt;S0 -->
<g id="edge3" class="edge"><title>R&#45;&gt;S0</title>
<path fill="none" stroke="black" d="M115.432,-265.956C129.231,-273.757 145.9,-284.348 158.948,-296.22 171.374,-307.528 169.759,-314.657 181.948,-326.22 188.667,-332.595 196.648,-338.647 204.277,-343.871"/>
<polygon fill="black" stroke="black" points="202.697,-347.021 212.976,-349.591 206.544,-341.172 202.697,-347.021"/>
<text text-anchor="middle" x="226.448" y="-315.02" font-family="Times,serif" font-size="14.00"> T == 1 x 2sec /</text>
<text text-anchor="middle" x="226.448" y="-300.02" font-family="Times,serif" font-size="14.00">blinkAll(3)</text>
</g>
<!-- G -->
<g id="node4" class="node"><title>G</title>
<ellipse fill="none" stroke="green" cx="284.948" cy="-131.61" rx="31.2258" ry="26.7407"/>
<text text-anchor="middle" x="284.948" y="-135.41" font-family="Times,serif" font-size="14.00">leggi</text>
<text text-anchor="middle" x="284.948" y="-120.41" font-family="Times,serif" font-size="14.00">G</text>
</g>
<!-- R&#45;&gt;G -->
<g id="edge4" class="edge"><title>R&#45;&gt;G</title>
<path fill="none" stroke="black" d="M88.3358,-224.435C89.425,-208.296 93.7065,-188.406 106.948,-176.48 129.11,-156.521 211.714,-168.092 239.948,-158.48 243.773,-157.178 247.639,-155.538 251.415,-153.719"/>
<polygon fill="black" stroke="black" points="253.317,-156.672 260.536,-148.917 250.057,-150.478 253.317,-156.672"/>
<text text-anchor="middle" x="188.948" y="-187.78" font-family="Times,serif" font-size="14.00"> T == 1 x 0.2sec / blink(G, 3)</text>
</g>
<!-- G&#45;&gt;S0 -->
<g id="edge5" class="edge"><title>G&#45;&gt;S0</title>
<path fill="none" stroke="black" d="M288.869,-158.579C293.471,-197.243 297.443,-271.277 270.948,-326.22 268.084,-332.158 263.733,-337.572 258.984,-342.272"/>
<polygon fill="black" stroke="black" points="256.507,-339.79 251.35,-349.045 261.153,-345.026 256.507,-339.79"/>
<text text-anchor="middle" x="336.448" y="-255.15" font-family="Times,serif" font-size="14.00"> T == 1 x 2sec /</text>
<text text-anchor="middle" x="336.448" y="-240.15" font-family="Times,serif" font-size="14.00">blinkAll(3)</text>
</g>
<!-- B -->
<g id="node5" class="node"><title>B</title>
<ellipse fill="none" stroke="blue" cx="223.948" cy="-26.8701" rx="31.2258" ry="26.7407"/>
<text text-anchor="middle" x="223.948" y="-30.6701" font-family="Times,serif" font-size="14.00">leggi</text>
<text text-anchor="middle" x="223.948" y="-15.6701" font-family="Times,serif" font-size="14.00">B</text>
</g>
<!-- G&#45;&gt;B -->
<g id="edge6" class="edge"><title>G&#45;&gt;B</title>
<path fill="none" stroke="black" d="M259.767,-115.446C245.179,-106.076 228.927,-94.4159 224.948,-86.7401 221.35,-79.799 219.813,-71.7506 219.426,-63.8761"/>
<polygon fill="black" stroke="black" points="222.927,-63.7588 219.504,-53.7323 215.927,-63.7051 222.927,-63.7588"/>
<text text-anchor="middle" x="306.448" y="-75.5401" font-family="Times,serif" font-size="14.00"> T == 1 x 0.2sec / blink(B, 3)</text>
</g>
<!-- B&#45;&gt;S0 -->
<g id="edge7" class="edge"><title>B&#45;&gt;S0</title>
<path fill="none" stroke="black" d="M254.815,-31.6601C297.692,-37.6313 371.84,-50.7575 387.948,-71.7401 443.834,-144.541 432.396,-199.658 384.948,-278.22 359.515,-320.33 304.502,-342.517 268.109,-353.047"/>
<polygon fill="black" stroke="black" points="267.097,-349.695 258.378,-355.714 268.948,-356.446 267.097,-349.695"/>
<text text-anchor="middle" x="468.448" y="-195.28" font-family="Times,serif" font-size="14.00"> T == 1 x 2sec /</text>
<text text-anchor="middle" x="468.448" y="-180.28" font-family="Times,serif" font-size="14.00">blinkAll(3)</text>
</g>
<!-- B&#45;&gt;R -->
<g id="edge8" class="edge"><title>B&#45;&gt;R</title>
<path fill="none" stroke="black" d="M193.994,-34.45C159.994,-43.6975 106.125,-64.1603 81.9479,-104.74 61.9885,-138.241 68.5914,-184.164 77.0123,-215.42"/>
<polygon fill="black" stroke="black" points="73.763,-216.783 79.9021,-225.418 80.4878,-214.839 73.763,-216.783"/>
<text text-anchor="middle" x="163.448" y="-127.91" font-family="Times,serif" font-size="14.00"> T == 1 x 0.2sec / blink(R, 3)</text>
</g>
</g>
</svg>
